<?xml version="1.0" encoding="UTF-8"?>
<svg version="1.1" xmlns="http://www.w3.org/2000/svg" width="64" height="64">
<path d="M0 0 C1.19496094 -0.00386719 1.19496094 -0.00386719 2.4140625 -0.0078125 C3.66316406 0.00378906 3.66316406 0.00378906 4.9375 0.015625 C5.77023438 0.00789062 6.60296875 0.00015625 7.4609375 -0.0078125 C8.25757813 -0.00523438 9.05421875 -0.00265625 9.875 0 C10.60589844 0.00225586 11.33679687 0.00451172 12.08984375 0.00683594 C13.9375 0.265625 13.9375 0.265625 15.9375 2.265625 C16.20990673 5.28389153 16.02425125 8.22933122 15.9375 11.265625 C19.2375 11.265625 22.5375 11.265625 25.9375 11.265625 C25.9375 14.565625 25.9375 17.865625 25.9375 21.265625 C28.103125 21.20375 28.103125 21.20375 30.3125 21.140625 C32.7734375 21.0703125 32.7734375 21.0703125 34.9375 21.265625 C37.30318222 23.63130722 37.19321704 24.11794726 37.203125 27.328125 C37.20699219 28.52308594 37.20699219 28.52308594 37.2109375 29.7421875 C37.20320313 30.57492188 37.19546875 31.40765625 37.1875 32.265625 C37.19910156 33.51472656 37.19910156 33.51472656 37.2109375 34.7890625 C37.20835938 35.58570313 37.20578125 36.38234375 37.203125 37.203125 C37.20086914 37.93402344 37.19861328 38.66492187 37.19628906 39.41796875 C36.9375 41.265625 36.9375 41.265625 34.9375 43.265625 C31.91923347 43.53803173 28.97379378 43.35237625 25.9375 43.265625 C25.9375 46.565625 25.9375 49.865625 25.9375 53.265625 C22.6375 53.265625 19.3375 53.265625 15.9375 53.265625 C15.97875 54.709375 16.02 56.153125 16.0625 57.640625 C16.1328125 60.1015625 16.1328125 60.1015625 15.9375 62.265625 C13.57181778 64.63130722 13.08517774 64.52134204 9.875 64.53125 C8.68003906 64.53511719 8.68003906 64.53511719 7.4609375 64.5390625 C6.62820312 64.53132813 5.79546875 64.52359375 4.9375 64.515625 C3.68839844 64.52722656 3.68839844 64.52722656 2.4140625 64.5390625 C1.61742188 64.53648438 0.82078125 64.53390625 0 64.53125 C-0.73089844 64.52899414 -1.46179688 64.52673828 -2.21484375 64.52441406 C-4.0625 64.265625 -4.0625 64.265625 -6.0625 62.265625 C-6.33490673 59.24735847 -6.14925125 56.30191878 -6.0625 53.265625 C-9.3625 53.265625 -12.6625 53.265625 -16.0625 53.265625 C-16.0625 49.965625 -16.0625 46.665625 -16.0625 43.265625 C-17.50625 43.306875 -18.95 43.348125 -20.4375 43.390625 C-22.8984375 43.4609375 -22.8984375 43.4609375 -25.0625 43.265625 C-27.42818222 40.89994278 -27.31821704 40.41330274 -27.328125 37.203125 C-27.33070312 36.40648437 -27.33328125 35.60984375 -27.3359375 34.7890625 C-27.32820313 33.95632812 -27.32046875 33.12359375 -27.3125 32.265625 C-27.32023437 31.43289062 -27.32796875 30.60015625 -27.3359375 29.7421875 C-27.33335938 28.94554688 -27.33078125 28.14890625 -27.328125 27.328125 C-27.32586914 26.59722656 -27.32361328 25.86632812 -27.32128906 25.11328125 C-27.0625 23.265625 -27.0625 23.265625 -25.0625 21.265625 C-22.04423347 20.99321827 -19.09879378 21.17887375 -16.0625 21.265625 C-16.0625 17.965625 -16.0625 14.665625 -16.0625 11.265625 C-12.7625 11.265625 -9.4625 11.265625 -6.0625 11.265625 C-6.10375 9.821875 -6.145 8.378125 -6.1875 6.890625 C-6.2578125 4.4296875 -6.2578125 4.4296875 -6.0625 2.265625 C-3.69681778 -0.10005722 -3.21017774 0.00990796 0 0 Z M-0.0625 4.265625 C-1.41868499 5.39096605 -1.41868499 5.39096605 -1.125 8.328125 C-1.104375 9.2975 -1.08375 10.266875 -1.0625 11.265625 C0.2575 11.265625 1.5775 11.265625 2.9375 11.265625 C2.9375 8.955625 2.9375 6.645625 2.9375 4.265625 C1.9475 4.265625 0.9575 4.265625 -0.0625 4.265625 Z M6.9375 4.265625 C6.9375 6.575625 6.9375 8.885625 6.9375 11.265625 C8.2575 11.265625 9.5775 11.265625 10.9375 11.265625 C10.9375 9.285625 10.9375 7.305625 10.9375 5.265625 C9.6175 4.935625 8.2975 4.605625 6.9375 4.265625 Z M-12.0625 15.265625 C-12.0625 26.485625 -12.0625 37.705625 -12.0625 49.265625 C-0.8425 49.265625 10.3775 49.265625 21.9375 49.265625 C21.9375 38.045625 21.9375 26.825625 21.9375 15.265625 C10.7175 15.265625 -0.5025 15.265625 -12.0625 15.265625 Z M-22.0625 25.265625 C-22.3925 26.915625 -22.7225 28.565625 -23.0625 30.265625 C-20.7525 30.265625 -18.4425 30.265625 -16.0625 30.265625 C-16.0625 28.945625 -16.0625 27.625625 -16.0625 26.265625 C-19.0325 25.770625 -19.0325 25.770625 -22.0625 25.265625 Z M25.9375 26.265625 C25.9375 27.585625 25.9375 28.905625 25.9375 30.265625 C28.2475 30.265625 30.5575 30.265625 32.9375 30.265625 C32.6075 28.945625 32.2775 27.625625 31.9375 26.265625 C29.9575 26.265625 27.9775 26.265625 25.9375 26.265625 Z M-23.0625 34.265625 C-22.7325 35.585625 -22.4025 36.905625 -22.0625 38.265625 C-20.0825 38.265625 -18.1025 38.265625 -16.0625 38.265625 C-16.0625 36.945625 -16.0625 35.625625 -16.0625 34.265625 C-18.3725 34.265625 -20.6825 34.265625 -23.0625 34.265625 Z M25.9375 34.265625 C25.9375 35.585625 25.9375 36.905625 25.9375 38.265625 C27.9175 38.265625 29.8975 38.265625 31.9375 38.265625 C32.2675 36.945625 32.5975 35.625625 32.9375 34.265625 C30.6275 34.265625 28.3175 34.265625 25.9375 34.265625 Z M-1.0625 53.265625 C-1.0625 55.245625 -1.0625 57.225625 -1.0625 59.265625 C0.2575 59.595625 1.5775 59.925625 2.9375 60.265625 C2.9375 57.955625 2.9375 55.645625 2.9375 53.265625 C1.6175 53.265625 0.2975 53.265625 -1.0625 53.265625 Z M6.9375 53.265625 C6.9375 55.575625 6.9375 57.885625 6.9375 60.265625 C8.2575 59.935625 9.5775 59.605625 10.9375 59.265625 C10.9375 57.285625 10.9375 55.305625 10.9375 53.265625 C9.6175 53.265625 8.2975 53.265625 6.9375 53.265625 Z " fill="#000000" transform="translate(27.0625,-0.265625)"/>
</svg>
